<svg xmlns="http://www.w3.org/2000/svg" viewBox="0 0 467.99 467.99" id="blogging"><path fill="#ff8ede" d="M3 36.171h392.225V431.82H3z"></path><path fill="#fff" d="M287.068 149.139a6.766 6.766 0 0 0 6.764 6.768h50.407c5.747 0 10.405 4.662 10.405 10.412v73.924a6.245 6.245 0 0 0 6.243 6.247 6.245 6.245 0 0 0 6.243-6.247v-77.047c0-11.501-9.317-20.824-20.811-20.824h-52.488a6.764 6.764 0 0 0-6.763 6.767z" opacity=".5"></path><path fill="#fd4cc8" d="M37.021 284.56c6.909-32.913 28.547-150.261 9.214-248.389H3V431.82h355.892c-62.115-39.298-261.203-39.565-261.203-39.565-58.374-.704-70.532-60.705-60.668-107.695z"></path><path fill="#fc09b2" d="M3 36.171h392.225v82.636H3z"></path><path fill="#bd0a95" d="M46.234 36.171H3v83.257h51.044c-.274-27.767-2.487-56.24-7.81-83.257z"></path><path fill="#fff" d="M133.747 63.118H81.76a3 3 0 1 1 0-6h51.987a3 3 0 1 1 0 6zM327.262 59.346h43.283v36.285h-43.283z"></path><path d="M370.545 98.631h-43.283a3 3 0 0 1-3-3V59.346a3 3 0 0 1 3-3h43.283a3 3 0 0 1 3 3v36.285a3 3 0 0 1-3 3zm-40.283-6h37.283V62.346h-37.283v30.285z"></path><path d="m353.118 77.489 3.23-3.273a3 3 0 0 0-4.269-4.215l-3.175 3.217-3.175-3.217a2.999 2.999 0 1 0-4.269 4.215l3.23 3.273-3.23 3.273a3 3 0 0 0 .027 4.242c1.418 1.163 2.832 1.154 4.242-.027l3.175-3.217 3.175 3.217c1.41 1.181 2.824 1.19 4.242.027a3 3 0 0 0 .027-4.242l-3.23-3.273z"></path><path fill="#fff" d="M258.697 59.346h43.282v36.285h-43.282z"></path><path d="M301.979 98.631h-43.282a3 3 0 0 1-3-3V59.346a3 3 0 0 1 3-3h43.282a3 3 0 0 1 3 3v36.285a3 3 0 0 1-3 3zm-40.283-6h37.282V62.346h-37.282v30.285z"></path><path d="M273.973 72.108h12.729v10.761h-12.729z"></path><path fill="#fff" d="M190.131 59.346h43.282v36.285h-43.282z"></path><path d="M233.413 98.631h-43.282a3 3 0 0 1-3-3V59.346a3 3 0 0 1 3-3h43.282a3 3 0 0 1 3 3v36.285a3.001 3.001 0 0 1-3 3zm-40.282-6h37.282V62.346h-37.282v30.285z"></path><path d="M216.669 80.488h-9.795a3 3 0 1 1 0-6h9.795a3 3 0 1 1 0 6zm-52.962 239.559H68.706a3 3 0 1 1 0-6h95.001a3 3 0 1 1 0 6zm0 54.141H68.706a3 3 0 1 1 0-6h95.001a3 3 0 1 1 0 6z"></path><path fill="#ffcf00" d="M69.749 181.569h93.958v76.35H69.749z"></path><path fill="#feac01" d="M99.134 232.954c-14.475-2.082-9.046-14.826-6.295-19.841 5.269-9.605 6.94-20.621 6.197-31.545H69.749v76.35h82.045c-5.479-24.036-52.66-24.964-52.66-24.964z"></path><g fill="#fff" opacity=".5"><ellipse cx="130.625" cy="186.965" rx="5.687" ry="5.691"></ellipse><ellipse cx="130.625" cy="208.097" rx="5.687" ry="5.691"></ellipse><ellipse cx="130.625" cy="231.391" rx="5.687" ry="5.691"></ellipse><ellipse cx="130.625" cy="252.522" rx="5.687" ry="5.691"></ellipse><ellipse cx="159.462" cy="186.965" rx="5.687" ry="5.691"></ellipse><ellipse cx="159.462" cy="208.097" rx="5.687" ry="5.691"></ellipse><ellipse cx="159.462" cy="231.391" rx="5.687" ry="5.691"></ellipse><ellipse cx="159.462" cy="252.522" rx="5.687" ry="5.691"></ellipse><ellipse cx="101.788" cy="186.965" rx="5.687" ry="5.691"></ellipse><ellipse cx="101.788" cy="208.097" rx="5.687" ry="5.691"></ellipse><ellipse cx="101.788" cy="231.391" rx="5.687" ry="5.691"></ellipse><ellipse cx="101.788" cy="252.522" rx="5.687" ry="5.691"></ellipse><ellipse cx="72.951" cy="186.965" rx="5.687" ry="5.691"></ellipse><ellipse cx="72.951" cy="208.097" rx="5.687" ry="5.691"></ellipse><ellipse cx="72.951" cy="231.391" rx="5.687" ry="5.691"></ellipse><ellipse cx="72.951" cy="252.522" rx="5.687" ry="5.691"></ellipse></g><path d="M163.707 260.919H69.749a3 3 0 0 1-3-3v-76.351a3 3 0 0 1 3-3h93.958a3 3 0 0 1 3 3v76.351a3 3 0 0 1-3 3zm-90.958-6h87.958v-70.351H72.749v70.351zm259.152-59.543H222.155a3 3 0 1 1 0-6h109.747a3 3 0 1 1-.001 6z"></path><path fill="#fff" d="m433.684 150.303 24.056 17.523c7.868 5.731 9.612 16.771 3.896 24.659L340.193 360.063l-57.325 23.709 4.777-61.985 121.443-167.579c5.716-7.887 16.728-9.636 24.596-3.905z"></path><path fill="#e3d7fe" d="M323.302 353.802c-2.508-36.863 14.64-69.087 41.806-92.736 40.865-33.827 61.566-83.838 70.065-109.678l-1.49-1.085c-7.868-5.731-18.88-3.982-24.596 3.906L287.645 321.787l-4.777 61.985 40.24-16.643c.486-4.682.472-9.239.194-13.327z"></path><path fill="#915efd" d="m287.645 321.787-4.777 61.985 57.325-23.709 18.101-24.978-52.548-38.276z"></path><path fill="#7e4ce8" d="m287.645 321.787-4.777 61.985 40.24-16.643c.487-4.682.473-9.239.195-13.327-.967-14.209.997-27.725 5.32-40.33l-22.876-16.663-18.102 24.978z"></path><g fill="#fff" opacity=".5"><path d="m299.935 303.532 10.63-1.683 1.684 10.636-10.63 1.683zM312.249 312.483l10.63-1.682 1.683 10.635-10.63 1.683zM324.562 321.434l10.63-1.683 1.683 10.636-10.63 1.682zM336.877 330.417l10.63-1.683 1.683 10.636-10.63 1.683zM290.99 315.853l10.63-1.682 1.683 10.635-10.63 1.683zM303.303 324.804l10.63-1.683 1.684 10.635-10.63 1.683zM315.618 333.755l10.63-1.683 1.683 10.636-10.63 1.683zM327.931 342.739l10.63-1.683 1.684 10.635-10.63 1.683zM318.986 355.059l10.63-1.683 1.683 10.636-10.63 1.683zM294.358 337.125l10.63-1.683 1.683 10.636-10.63 1.683zM306.672 346.076l10.63-1.683 1.684 10.635-10.63 1.683zM285.44 349.449l10.63-1.683 1.684 10.635-10.63 1.683zM297.755 358.4l10.63-1.683 1.683 10.636-10.63 1.682z" opacity=".5"></path><path d="m350.253 346.181 5.72-7.892-6.799 1.077zM340.228 351.616l1.091 6.892 5.785-7.981zM310.051 367.396l.763 4.818 10.227-4.23-.36-2.273zM292.659 326.504l-5.445.863-.85 11.038 7.979-1.265zM287.116 360.14l-2.457.39-.85 11.037 4.991-.791zM288.8 370.776l1.566 9.895 10.227-4.23-1.164-7.349z" opacity=".5"></path></g><path fill="#915efd" d="m457.74 167.826-24.056-17.523c-7.868-5.731-18.88-3.982-24.596 3.906l-16.905 23.328 52.548 38.276 16.905-23.328c5.716-7.888 3.972-18.929-3.896-24.659z"></path><path fill="#7e4ce8" d="M433.684 150.303c-7.868-5.731-18.88-3.982-24.596 3.906l-16.905 23.328 24.415 17.784c8.917-16.997 14.892-32.732 18.576-43.932l-1.49-1.086z"></path><g fill="#fff" opacity=".5"><path d="m402.335 176.13 10.631-2.068 2.07 10.638-10.632 2.068zM415.033 184.702l10.632-2.068 2.07 10.637-10.633 2.068zM427.73 193.272l10.633-2.068 2.069 10.638-10.632 2.068zM410.901 163.425l10.632-2.068 2.069 10.637-10.632 2.068zM423.599 171.995l10.632-2.068 2.069 10.638-10.632 2.068zM436.296 180.567l10.632-2.068 2.07 10.637-10.632 2.068zM419.466 150.718l10.632-2.068 2.07 10.637-10.632 2.069zM432.164 159.29l10.632-2.069 2.069 10.638-10.632 2.068zM444.863 167.86l10.631-2.068 2.07 10.637-10.632 2.068zM400.413 166.178l-8.231 11.358.604.44 9.558-1.859zM440.439 201.828l2.066 10.638 5.413-1.053 4.271-5.894-1.118-5.759zM401.026 165.333l9.883-1.922-1.794-9.236-.028.034-8.061 11.124z" opacity=".5"></path><path d="m449.004 189.121 2.067 10.639 6.161-1.199 3.659-5.048-1.255-6.46zM410.582 152.433l8.892-1.73-.62-3.189a17.53 17.53 0 0 0-8.272 4.919zm49.054 34.62 4.911-.955c.841-3.64.48-7.444-.953-10.855l-6.024 1.172 2.066 10.638z" opacity=".5"></path></g><path d="m459.507 165.4-24.057-17.522c-10.86-6.446-20.457-4.923-28.791 4.569l-8.435 11.639V36.171a3 3 0 0 0-3-3H3a3 3 0 0 0-3 3v395.648a3 3 0 0 0 3 3h392.225a3 3 0 0 0 3-3V285.097l65.841-90.852c6.673-9.211 4.629-22.15-4.559-28.845zM6 39.171h386.225v76.636H6V39.171zm386.225 389.648H6V121.807h386.225v50.559L338.21 246.9H222.155a3 3 0 1 0 0 6h111.707l-48.646 67.126c-.325.448-.52.979-.563 1.53l-4.776 61.984c-.174 2.255 2.269 3.774 4.138 3.003l57.324-23.709a2.996 2.996 0 0 0 1.282-1.012l49.604-68.447v135.444zM306.41 301.005l47.698 34.743-15.846 21.866-52.027 21.519 4.336-56.271 15.839-21.857zm51.219 29.884-47.698-34.743 82.916-114.414 47.698 34.743-82.916 114.414zm101.578-140.165-15.141 20.893-47.698-34.743 15.15-20.905c5.904-6.729 12.704-7.809 20.399-3.241l24.057 17.522c6.521 4.751 7.971 13.936 3.233 20.474z"></path><ellipse cx="370.902" cy="237.18" rx="4.624" ry="4.625" transform="rotate(-55.986 370.885 237.178)"></ellipse><ellipse cx="396.179" cy="254.24" rx="4.624" ry="4.625" transform="rotate(-55.986 396.161 254.238)"></ellipse><ellipse cx="359.199" cy="247.708" fill="#fc09b2" rx="5.079" ry="6.366" transform="rotate(-55.986 359.182 247.705)"></ellipse><ellipse cx="390.28" cy="268.686" fill="#fc09b2" rx="5.079" ry="6.366" transform="rotate(-55.986 390.262 268.683)"></ellipse><path d="M375.702 257.811a7.231 7.231 0 0 1-1.952-10.035 3.73 3.73 0 0 1 3.972-1.541 13.757 13.757 0 0 1 7.95 5.365 3.737 3.737 0 0 1 .06 4.263 7.222 7.222 0 0 1-10.03 1.948z"></path><circle cx="441.22" cy="289.809" r="12" fill="#00d5fe"></circle><path d="M441.221 304.81c-8.271 0-15-6.729-15-15s6.729-15 15-15 15 6.729 15 15-6.729 15-15 15zm0-24c-4.963 0-9 4.037-9 9s4.037 9 9 9 9-4.037 9-9-4.037-9-9-9zM441.153 100.27a3 3 0 0 1-3-3V32.703a3 3 0 1 1 6 0V97.27a3 3 0 0 1-3 3zm0 19a3 3 0 0 1-3-3v-5.667a3 3 0 1 1 6 0v5.667a3 3 0 0 1-3 3zM441.153 419.287a3 3 0 0 1-3-3v-64.566a3 3 0 1 1 6 0v64.566a3 3 0 0 1-3 3zm0 19a3 3 0 0 1-3-3v-5.666a3 3 0 1 1 6 0v5.666a3 3 0 0 1-3 3z"></path></svg>